# File created by Blade
# Date/Time:  Tue Apr 07 21:12:38 2015
# Frame Rate: 120.000 fps
#------------------------------------------------------
:FULLY-SPECIFIED
:DEGREES
1632
root 22.470587 16.854931 7.229279 762.002351 -63.123383 -669.256306
Spine 17.298519 -16.926003 13.195533
Head -57.057565 -1.506370 14.002278
LeftShoulder 191.939365 170.125741 218.145199
LeftArm 95.906137 -36.047832 -91.820410
LeftForeArm 29.888568 -0.000000 120.772841
LeftHand -4.513298 0.000000 1.393590
LeftHandThumb1 -26.253704 0.000000 33.147579
RightShoulder 12.919989 29.652555 -26.755792
RightArm 44.393269 29.899281 79.398874
RightForeArm -29.242980 -0.000000 129.515545
RightHand -4.847789 -0.000000 6.193603
RightHandThumb1 -24.326973 -0.000000 -32.862282
LeftUpLeg -21.811464 4.109071 7.824819
LeftLeg 11.763185 -0.000000 -0.000000
LeftFoot 42.239127 10.744929 3.944252
LeftToeBase 98.563400 -0.000000 -0.000000
RightUpLeg -96.084173 2.156299 5.125261
RightLeg 97.970892 -0.000000 -0.000000
RightFoot 40.669230 -3.362105 20.493486
RightToeBase 17.548838 -0.000000 -0.000000
1633
root 22.595302 16.865054 7.202562 759.841570 -63.268539 -667.503149
Spine 17.594071 -17.239889 12.127827
Head -57.216153 -1.456409 13.999898
LeftShoulder 191.762295 169.865066 218.270178
LeftArm 96.149817 -35.484185 -91.687418
LeftForeArm 31.023616 -0.000000 119.453243
LeftHand -3.513860 -0.000000 2.873698
LeftHandThumb1 -26.253704 0.000000 33.147579
RightShoulder 13.251801 29.187417 -26.612377
RightArm 44.953424 30.462664 79.492450
RightForeArm -29.441869 -0.000000 128.975587
RightHand -4.921173 -0.000000 6.326623
RightHandThumb1 -24.326973 -0.000000 -32.862282
LeftUpLeg -22.152307 3.572719 6.620381
LeftLeg 11.888934 -0.000000 -0.000000
LeftFoot 41.796838 16.499405 2.979363
LeftToeBase 91.528839 -0.000000 -0.000000
RightUpLeg -96.184471 1.681117 4.311389
RightLeg 98.602639 -0.000000 -0.000000
RightFoot 40.848593 -3.493305 21.074863
RightToeBase 17.850509 -0.000000 -0.000000
1634
root 22.718370 16.872261 7.178863 757.686765 -63.255306 -665.701614
Spine 17.813089 -17.562262 11.221038
Head -57.436718 -1.499385 13.921052
LeftShoulder 191.535662 169.632672 218.427991
LeftArm 96.344053 -34.740663 -91.662157
LeftForeArm 32.217777 0.000000 118.150370
LeftHand -2.505973 0.000000 4.209467
LeftHandThumb1 -26.253704 0.000000 33.147579
RightShoulder 13.485901 28.979729 -26.474414
RightArm 45.182341 30.953121 79.378831
RightForeArm -29.433325 -0.000000 128.480349
RightHand -5.022240 -0.000000 6.480169
RightHandThumb1 -24.326973 -0.000000 -32.862282
LeftUpLeg -22.523996 3.174176 5.394496
LeftLeg 12.223711 -0.000000 -0.000000
LeftFoot 42.020297 21.718798 3.293366
LeftToeBase 80.190411 -0.000000 -0.000000
RightUpLeg -96.332807 1.111882 3.521404
RightLeg 99.228470 -0.000000 -0.000000
RightFoot 41.220759 -3.550263 21.516904
RightToeBase 18.147352 -0.000000 -0.000000
1635
root 22.851964 16.858949 7.154949 756.066028 -62.998117 -664.387271
Spine 17.797601 -17.882397 10.791762
Head -57.506395 -1.695577 13.699347
LeftShoulder 191.262560 169.407280 218.527827
LeftArm 96.400752 -33.862428 -91.702320
LeftForeArm 32.739522 -0.000000 116.902876
LeftHand -1.485363 -0.000000 4.391548
LeftHandThumb1 -26.253704 0.000000 33.147579
RightShoulder 13.722261 28.917148 -26.503381
RightArm 45.092035 31.488882 79.172095
RightForeArm -29.286315 -0.000000 128.058285
RightHand -5.156324 -0.000000 6.610565
RightHandThumb1 -24.326973 -0.000000 -32.862282
LeftUpLeg -22.858194 3.075677 4.430079
LeftLeg 12.077752 -0.000000 -0.000000
LeftFoot 42.102209 21.220286 3.804425
LeftToeBase 81.133920 -0.000000 -0.000000
RightUpLeg -96.546171 0.552037 3.047929
RightLeg 99.931510 -0.000000 -0.000000
RightFoot 41.575218 -3.255639 21.584023
RightToeBase 18.177223 -0.000000 -0.000000
1636
root 22.976606 16.843771 7.133781 754.639889 -62.603215 -663.263802
Spine 17.712527 -18.217185 10.628518
Head -57.618710 -2.091345 13.334893
LeftShoulder 190.988327 169.199206 218.521629
LeftArm 96.394418 -32.976443 -91.732391
LeftForeArm 33.200102 -0.000000 115.639982
LeftHand -0.401116 0.000000 5.662362
LeftHandThumb1 -26.253704 0.000000 33.147579
RightShoulder 13.923316 28.919143 -26.634160
RightArm 44.867534 31.979181 78.874797
RightForeArm -29.125010 -0.000000 127.668765
RightHand -5.274514 -0.000000 6.779540
RightHandThumb1 -24.326973 -0.000000 -32.862282
LeftUpLeg -23.140809 2.963832 3.618374
LeftLeg 12.068712 -0.000000 -0.000000
LeftFoot 41.884503 20.691195 4.297189
LeftToeBase 82.608375 -0.000000 -0.000000
RightUpLeg -96.700327 -0.041464 2.689716
RightLeg 100.619168 -0.000000 -0.000000
RightFoot 41.646617 -2.971931 21.711430
RightToeBase 18.125140 -0.000000 -0.000000
1637
root 23.090623 16.829403 7.108184 753.596725 -62.177878 -662.440555
Spine 17.499993 -18.506575 10.649497
Head -57.709465 -2.476056 12.925809
LeftShoulder 190.653833 168.987588 218.428636
LeftArm 96.214102 -32.169127 -91.547427
LeftForeArm 33.252969 0.000000 114.478784
LeftHand 0.324714 0.000000 6.127775
LeftHandThumb1 -26.253704 0.000000 33.147579
RightShoulder 14.139286 28.766494 -26.811056
RightArm 44.791433 32.456911 78.654098
RightForeArm -29.037916 -0.000000 127.309990
RightHand -5.308052 -0.000000 6.891818
RightHandThumb1 -24.326973 -0.000000 -32.862282
LeftUpLeg -23.453774 2.891894 2.971665
LeftLeg 12.185824 -0.000000 -0.000000
LeftFoot 41.431345 20.268784 4.653017
LeftToeBase 84.151794 -0.000000 -0.000000
RightUpLeg -96.880753 -0.543910 2.460328
RightLeg 101.218980 -0.000000 -0.000000
RightFoot 41.668937 -2.635187 21.834059
RightToeBase 18.338089 -0.000000 -0.000000
1638
root 23.194809 16.812684 7.080256 752.964756 -61.666612 -662.113517
Spine 17.351031 -18.673164 10.972092
Head -57.794972 -2.862704 12.349654
LeftShoulder 190.300729 168.713229 218.309852
LeftArm 96.216308 -31.299443 -91.431348
LeftForeArm 33.405597 -0.000000 113.341450
LeftHand 1.163642 -0.000000 6.837798
LeftHandThumb1 -26.253704 0.000000 33.147579
RightShoulder 14.277934 28.635200 -27.046549
RightArm 44.668443 32.992138 78.367255
RightForeArm -28.887125 0.000000 126.968631
RightHand -5.315517 -0.000000 7.012027
RightHandThumb1 -24.326973 -0.000000 -32.862282
LeftUpLeg -23.712490 3.193297 2.506207
LeftLeg 12.499877 -0.000000 -0.000000
LeftFoot 41.127353 19.529016 5.068596
LeftToeBase 84.834407 -0.000000 -0.000000
RightUpLeg -96.931896 -0.964442 2.478890
RightLeg 101.727179 -0.000000 -0.000000
RightFoot 41.637080 -2.359403 21.907311
RightToeBase 18.646909 -0.000000 -0.000000
1639
root 23.281339 16.787716 7.047826 752.640921 -61.181062 -662.151113
Spine 17.256202 -18.873541 11.426527
Head -57.897265 -3.140646 11.652460
LeftShoulder 189.787029 168.650934 218.025431
LeftArm 95.806207 -30.489333 -91.078601
LeftForeArm 33.287972 -0.000000 112.369346
LeftHand 1.764309 -0.000000 7.437822
LeftHandThumb1 -26.253704 0.000000 33.147579
RightShoulder 14.476755 29.218156 -27.060000
RightArm 43.854380 33.050040 77.720588
RightForeArm -28.904640 -0.000000 126.565850
RightHand -5.277240 -0.000000 7.069108
RightHandThumb1 -24.326973 -0.000000 -32.862282
LeftUpLeg -23.805734 3.504642 2.285208
LeftLeg 12.828139 -0.000000 -0.000000
LeftFoot 41.066264 19.220648 5.103049
LeftToeBase 83.495534 -0.000000 -0.000000
RightUpLeg -96.876792 -1.228476 2.677335
RightLeg 102.137425 -0.000000 -0.000000
RightFoot 41.615974 -2.275779 21.749797
RightToeBase 18.881724 -0.000000 -0.000000
1640
root 23.364231 16.772210 7.020612 752.397843 -60.639639 -662.242152
Spine 17.136431 -18.964382 11.987056
Head -57.953357 -3.444763 10.982243
LeftShoulder 189.365026 168.395764 217.783579
LeftArm 95.891349 -29.669127 -90.918167
LeftForeArm 33.456861 -0.000000 111.357160
LeftHand 2.294801 -0.000000 8.263953
LeftHandThumb1 -26.253704 0.000000 33.147579
RightShoulder 14.625561 29.594246 -27.042962
RightArm 43.203517 33.276899 76.986883
RightForeArm -28.876990 0.000000 126.181886
RightHand -5.343975 -0.000000 7.101645
RightHandThumb1 -24.326973 -0.000000 -32.862282
LeftUpLeg -23.910848 3.610417 2.158319
LeftLeg 13.407056 -0.000000 -0.000000
LeftFoot 41.495176 18.944535 4.928314
LeftToeBase 79.065780 -0.000000 -0.000000
RightUpLeg -96.829566 -1.557593 2.979248
RightLeg 102.461792 -0.000000 -0.000000
RightFoot 41.606717 -2.491474 21.493099
RightToeBase 19.066913 -0.000000 -0.000000
1641
root 23.442564 16.751687 6.991718 752.358629 -60.045576 -662.531210
Spine 16.959203 -19.015050 12.699378
Head -57.906975 -3.721894 10.253644
LeftShoulder 188.995225 167.694743 217.506915
LeftArm 96.536232 -28.910298 -90.900166
LeftForeArm 33.520787 -0.000000 110.369890
LeftHand 2.516501 -0.000000 8.687392
LeftHandThumb1 -26.253704 0.000000 33.147579
RightShoulder 14.758422 29.518953 -27.156144
RightArm 43.014930 33.722312 76.425820
RightForeArm -28.843549 0.000000 125.829639
RightHand -5.411033 -0.000000 7.240272
RightHandThumb1 -24.326973 -0.000000 -32.862282
LeftUpLeg -23.944248 3.594805 2.301191
LeftLeg 13.890749 -0.000000 -0.000000
LeftFoot 41.619640 18.684963 4.594035
LeftToeBase 76.032029 -0.000000 -0.000000
RightUpLeg -96.782368 -1.846858 3.401704
RightLeg 102.772135 -0.000000 -0.000000
RightFoot 41.428527 -2.819593 21.277711
RightToeBase 19.238104 -0.000000 -0.000000
